<svg xmlns="http://www.w3.org/2000/svg" width="48" height="48" viewBox="0 0 48 48"><g transform="translate(0 -1004.362)"><circle cx="24" cy="1028.362" r="24" fill="#ffa40b" fill-rule="evenodd"/><g transform="translate(546.291 -138.267)"><path fill="#25b39e" style="isolation:auto;mix-blend-mode:normal" d="m -523.47718,1154.6287 3.69146,0 c 1.38501,0 2.50002,1.115 2.50002,2.5 l 0,19 c 0,1.385 -1.11501,2.5 -2.50002,2.5 l -3.69146,0 -3.17769,0 -7.63083,0 0,-24 7.63083,0 z" color="#000" overflow="visible"/><path fill="none" stroke="#60c5b8" stroke-linecap="round" stroke-linejoin="round" d="M-534.78393 1156.6288l.99289 0M-534.78393 1158.6288l.99289 0M-534.78393 1160.6288l.99289 0M-534.78393 1162.6288l.99289 0M-534.78393 1164.6287l.99289 0M-534.78393 1166.6287l.99289 0M-534.78393 1168.6287l.99289 0M-534.78393 1170.6287l.99289 0M-534.78393 1172.6288l.99289 0M-534.78393 1174.6288l.99289 0M-534.78393 1176.6288l.99289 0"/><rect width="4" height="15" x="-513.286" y="1161.629" fill="#f05542" color="#000" overflow="visible" style="isolation:auto;mix-blend-mode:normal"/><path fill="#e9eded" d="M-513.2857 1176.6287l4 0-2 4zM-513.2857 1161.6287l0-1.5c0-.831.66901-1.5 1.50002-1.5l.99996 0c.83101 0 1.50002.669 1.50002 1.5l0 1.5z" color="#000" overflow="visible" style="isolation:auto;mix-blend-mode:normal"/><path fill="none" stroke="#34485c" d="m -511.2857,1176.6287 0,-14"/><path fill="#34485c" style="isolation:auto;mix-blend-mode:normal" d="m -511.7857,1179.6287 0.5,1 0.5,-1 -1,0 z" color="#000" overflow="visible"/><rect style="isolation:auto;mix-blend-mode:normal" width="4" height="1" x="-513.286" y="1161.629" fill="#34485c" color="#000" overflow="visible"/><rect style="isolation:auto;mix-blend-mode:normal" width="10" height="4.5" x="-530.282" y="1159.129" fill="#576d7e" color="#000" overflow="visible"/><path fill="#f05542" style="isolation:auto;mix-blend-mode:normal" d="m -523.28214,1154.6287 2,0 0,27 -1,-1 -1,1 z" color="#000" overflow="visible"/></g></g></svg>